<?xml version="1.0" standalone="no"?>
<!DOCTYPE svg PUBLIC "-//W3C//DTD SVG 20010904//EN"
 "http://www.w3.org/TR/2001/REC-SVG-20010904/DTD/svg10.dtd">
<svg version="1.0" xmlns="http://www.w3.org/2000/svg"
 width="512.000000pt" height="512.000000pt" viewBox="0 0 512.000000 512.000000"
 preserveAspectRatio="xMidYMid meet">
<metadata>
Created by potrace 1.14, written by Peter Selinger 2001-2017
</metadata>
<g transform="translate(0.000000,512.000000) scale(0.100000,-0.100000)"
fill="#000000" stroke="none">
<path d="M4740 4917 c-36 -10 -96 -28 -135 -38 -75 -21 -115 -53 -115 -92 0
-19 -12 -25 -98 -49 -95 -26 -97 -26 -112 -8 -27 34 -59 39 -130 18 -36 -11
-90 -26 -120 -34 -100 -27 -108 -36 -187 -194 -40 -80 -73 -156 -73 -169 0
-17 -24 -47 -79 -100 -43 -42 -181 -175 -307 -296 -125 -121 -279 -269 -342
-330 -62 -60 -139 -134 -170 -164 -31 -30 -153 -147 -271 -260 -303 -292 -313
-301 -321 -296 -5 3 -20 25 -33 50 -86 152 -64 273 76 417 77 80 87 99 87 164
0 73 -38 133 -106 167 -72 37 -246 -3 -368 -84 -186 -123 -295 -272 -410 -559
-105 -264 -177 -369 -289 -426 -26 -14 -134 -47 -240 -74 -264 -67 -442 -142
-575 -242 -53 -39 -54 -41 -50 -85 3 -43 1 -46 -67 -118 -61 -64 -73 -73 -97
-68 -40 8 -69 -16 -105 -83 -72 -137 -104 -288 -98 -464 2 -69 6 -140 9 -158
9 -56 54 -215 72 -257 10 -22 18 -42 19 -45 3 -18 76 -148 120 -215 168 -254
432 -463 711 -564 71 -26 124 -39 259 -66 49 -9 235 -7 305 4 197 32 358 117
492 260 144 154 220 326 258 586 6 44 18 110 27 148 23 101 47 120 335 255
167 79 284 166 310 232 28 69 17 135 -29 191 -57 67 -123 78 -236 39 -138 -49
-224 -24 -312 88 l-45 57 54 55 c30 30 79 80 108 111 60 63 438 455 633 658
147 153 312 324 467 486 59 61 147 153 198 205 50 52 157 164 238 248 80 83
152 152 160 152 8 0 38 14 66 31 62 39 110 46 160 25 95 -40 125 -21 280 180
135 174 140 178 299 264 115 61 144 87 153 135 11 61 -3 86 -120 203 -131 133
-148 140 -256 109z"/>
</g>
</svg>
